<svg width="918" height="474" viewBox="0 0 918 474" fill="none" xmlns="http://www.w3.org/2000/svg">
<ellipse cx="386.715" cy="236.998" rx="362.5" ry="137" transform="rotate(-17 386.715 236.998)" fill="#8C8C8C"/>
<path d="M38.8 308C32.6 308 26.7 306.3 21.1 302.9C15.5 299.3 11.3 293.9 8.5 286.7C7.5 284.1 6.8 281.4 6.4 278.6C6 275.6 5.8 272.7 5.8 269.9C5.8 267.1 6.3 265.7 7.3 265.7C8.5 265.7 9.1 266.5 9.1 268.1C9.1 277.5 11.4 284.6 16 289.4C20.8 294.2 26.7 296.6 33.7 296.6C40.7 296.6 47.4 294.6 53.8 290.6C60.4 286.6 66.5 281.5 72.1 275.3C81.3 265.3 89.1 255.2 95.5 245C101.9 234.6 107.7 224 112.9 213.2C118.3 202.2 123.7 190.8 129.1 179C132.5 171.8 136.7 165.5 141.7 160.1C146.9 154.7 153.1 151 160.3 149L160.6 148.7H144.1C137.1 148.7 129.7 149 121.9 149.6C114.1 150.2 107 151.5 100.6 153.5C94.4 155.5 89.9 158.5 87.1 162.5C85.3 165.1 84.4 168.1 84.4 171.5C84.4 174.9 85.3 178.2 87.1 181.4C88.9 184.6 91.2 186.9 94 188.3C94.4 188.7 94.6 189 94.6 189.2C94.6 189.6 94.1 190.1 93.1 190.7C92.3 191.1 91.4 191.2 90.4 191C88.8 190 86.8 188.4 84.4 186.2C82 183.8 79.8 181.3 77.8 178.7C76 176.1 74.8 173.9 74.2 172.1C73.4 169.7 73 167.3 73 164.9C73 160.1 74.7 156.2 78.1 153.2C81.7 150.2 86.3 147.9 91.9 146.3C97.5 144.7 103.5 143.6 109.9 143C116.5 142.2 122.8 141.8 128.8 141.8C135 141.6 140.3 141.5 144.7 141.5H177.1C177.5 141.5 177.7 141.6 177.7 141.8C177.7 142.4 177 143.3 175.6 144.5C174.4 145.5 173.6 146 173.2 146C168.2 147 164.5 149.7 162.1 154.1C159.7 158.3 158.6 165.1 158.8 174.5C158.8 174.5 158.8 176.7 158.8 181.1C159 185.5 159.2 191.2 159.4 198.2C159.6 205.2 159.8 212.7 160 220.7C160.2 228.7 160.4 236.4 160.6 243.8C160.8 251.2 161 257.4 161.2 262.4V264.2L265.3 154.4C271.9 147.4 278.4 141.5 284.8 136.7C291.4 131.7 298.2 129.5 305.2 130.1C305.4 130.1 305.5 130.2 305.5 130.4C305.7 130.4 305.8 130.4 305.8 130.4C305.8 131 305.4 131.7 304.6 132.5C303.8 133.3 302.9 133.8 301.9 134C296.7 133.8 292 135.8 287.8 140C283.6 144.2 279.7 149.2 276.1 155C274.3 158 271.6 162.8 268 169.4C264.4 175.8 260.3 183.4 255.7 192.2C251.3 201 246.8 210.3 242.2 220.1C237.6 229.9 233.3 239.5 229.3 248.9C225.5 258.3 222.4 266.9 220 274.7C217.6 282.3 216.4 288.5 216.4 293.3C216.4 298.9 218.3 301.7 222.1 301.7C223.7 301.7 225.4 301.3 227.2 300.5C229.8 299.5 232.7 298 235.9 296C239.1 294 242 291.7 244.6 289.1C249.8 284.1 254.4 279 258.4 273.8C262.4 268.4 264.8 265.3 265.6 264.5C266.2 263.7 266.7 263.3 267.1 263.3C267.9 263.3 268.3 263.9 268.3 265.1C268.3 266.3 267.9 267.4 267.1 268.4C265.5 270.4 262.8 273.9 259 278.9C255.2 283.7 250.7 288.6 245.5 293.6C240.5 298.6 235.1 302.4 229.3 305C227.5 305.8 225.6 306.4 223.6 306.8C221.6 307.4 219.6 307.7 217.6 307.7C213.2 307.7 209.2 306.4 205.6 303.8C202.2 301 200.5 296.4 200.5 290C200.5 283.8 201.9 276.8 204.7 269C207.7 261 211 253.3 214.6 245.9C218.4 238.3 221.5 231.9 223.9 226.7C226.5 221.3 229.8 214.4 233.8 206C237.8 197.6 242.4 189.1 247.6 180.5L161.2 271.7C161 273.3 160.3 274.9 159.1 276.5C157.9 277.9 156 279.1 153.4 280.1C152 280.7 150.1 282.3 147.7 284.9C145.3 287.5 143.7 289.3 142.9 290.3C142.9 290.5 142.6 290.6 142 290.6C141.4 290.6 140.8 290.4 140.2 290C139.6 289.6 139.4 289.3 139.6 289.1C144.8 282.5 147.5 273.4 147.7 261.8L148 254.6C148.4 246.2 148.7 237.4 148.9 228.2C149.1 218.8 149.2 210.1 149.2 202.1C149.4 193.9 149.5 187.3 149.5 182.3C149.5 177.1 149.5 174.5 149.5 174.5C149.5 169.7 150.2 165.5 151.6 161.9C153 158.3 154.7 155.2 156.7 152.6C153.3 155.2 150 158.3 146.8 161.9C143.6 165.5 140.9 169.5 138.7 173.9C135.7 180.1 132.3 188.1 128.5 197.9C124.7 207.7 120.3 218.1 115.3 229.1C110.5 240.1 105.1 250.9 99.1 261.5C93.3 271.9 86.8 280.9 79.6 288.5C74.6 293.9 68.2 298.5 60.4 302.3C52.8 306.1 45.6 308 38.8 308ZM232.323 410C224.723 410 217.423 408.2 210.423 404.6C203.223 401.2 197.923 395.9 194.523 388.7C193.323 386.1 192.523 383.3 192.123 380.3C191.723 377.5 191.523 374.7 191.523 371.9V368.6C191.523 367 191.723 365.5 192.123 364.1C192.523 362.9 193.523 362.3 195.123 362.3C195.523 362.3 195.723 362.5 195.723 362.9C195.723 364.1 195.623 365.3 195.423 366.5C195.223 367.7 195.123 369 195.123 370.4C195.123 379.6 198.123 386.6 204.123 391.4C209.923 396.2 217.223 398.6 226.023 398.6C229.623 398.6 233.323 398.2 237.123 397.4C240.923 396.6 244.523 395.5 247.923 394.1C260.523 388.7 271.423 381 280.623 371C290.023 361.2 298.223 350.1 305.223 337.7C312.223 325.3 318.523 312.7 324.123 299.9C327.323 292.3 330.123 284.9 332.523 277.7C335.123 270.5 337.423 264 339.423 258.2C337.423 261 334.823 264.4 331.623 268.4C328.423 272.4 325.223 276.3 322.023 280.1C318.823 283.7 316.023 286.6 313.623 288.8C308.623 293.6 303.223 297.7 297.423 301.1C291.823 304.3 286.023 305.9 280.023 305.9C278.023 305.9 276.323 305.5 274.923 304.7C273.523 303.9 272.823 302.4 272.823 300.2C272.823 297.4 273.523 294.1 274.923 290.3C276.523 286.5 278.223 282.7 280.023 278.9C281.823 275.1 283.323 272 284.523 269.6C286.923 265 289.223 260.4 291.423 255.8C293.623 251.2 295.523 247.3 297.123 244.1C298.723 241.1 299.523 239.1 299.523 238.1C299.523 236.5 298.323 236.5 295.923 238.1C293.723 239.7 291.623 241.3 289.623 242.9C285.223 247.1 280.623 252.1 275.823 257.9C271.023 263.5 267.323 268 264.723 271.4C264.123 272.2 263.623 272.6 263.223 272.6C262.823 272.6 262.623 272.1 262.623 271.1C262.623 269.5 263.123 268 264.123 266.6C266.923 262.6 270.223 258.2 274.023 253.4C277.823 248.6 281.723 244 285.723 239.6C289.523 235.6 293.423 231.7 297.423 227.9C301.423 224.1 306.523 222.2 312.723 222.2C316.923 222.2 319.023 223.8 319.023 227C319.023 229.8 317.823 233 315.423 236.6C314.023 238.8 311.823 242.5 308.823 247.7C305.823 252.9 302.723 258.6 299.523 264.8C296.523 270.8 293.923 276.4 291.723 281.6C289.523 286.8 288.423 290.6 288.423 293C288.423 295.8 289.823 297.2 292.623 297.2C294.823 297.2 297.523 296.1 300.723 293.9C303.923 291.5 307.223 288.7 310.623 285.5C316.423 279.9 321.723 273.7 326.523 266.9C331.523 260.1 335.823 253.6 339.423 247.4C340.023 246.4 341.023 244.6 342.423 242C344.023 239.4 345.623 236.9 347.223 234.5C349.023 232.1 350.423 230.7 351.423 230.3C352.423 229.9 354.423 228.8 357.423 227C360.423 225.2 363.423 224 366.423 223.4C369.223 222.8 371.323 222.5 372.723 222.5C374.923 222.5 376.023 223.1 376.023 224.3C376.023 225.9 375.123 226.7 373.323 226.7C371.123 226.7 369.123 227.3 367.323 228.5C365.523 229.5 364.123 230.8 363.123 232.4C361.323 235 358.723 239.7 355.323 246.5C352.123 253.3 348.523 261.2 344.523 270.2C340.723 279 336.923 288 333.123 297.2C329.323 306.2 325.823 314.5 322.623 322.1C317.823 333.5 312.323 344.6 306.123 355.4C299.923 366.4 292.623 376.2 284.223 384.8C276.023 393.6 266.223 400.5 254.823 405.5C248.023 408.5 240.523 410 232.323 410ZM418.832 309.5C418.032 309.5 418.032 308.6 418.832 306.8C419.832 305 420.732 303 421.532 300.8C422.532 298.6 423.532 296.2 424.532 293.6C426.532 288.8 428.732 283.4 431.132 277.4C433.532 271.4 435.832 265.6 438.032 260C440.232 254.2 442.132 249.3 443.732 245.3C445.532 241.1 446.732 238.4 447.332 237.2C444.532 240.2 441.132 244 437.132 248.6C433.332 253 429.732 257.3 426.332 261.5C422.932 265.7 420.332 269 418.532 271.4C417.932 272.2 417.432 272.6 417.032 272.6C416.632 272.6 416.432 272.1 416.432 271.1C416.432 269.5 416.932 268 417.932 266.6C421.732 261.8 425.932 256.4 430.532 250.4C435.332 244.4 439.632 238.9 443.432 233.9C447.232 228.7 449.632 225.3 450.632 223.7C452.832 223.3 456.032 222.7 460.232 221.9C464.632 221.1 467.632 220 469.232 218.6C469.832 218 470.432 217.7 471.032 217.7C471.432 217.7 471.632 218.1 471.632 218.9C471.832 219.5 471.632 220.2 471.032 221C469.832 222.4 467.732 225.7 464.732 230.9C461.932 235.9 458.832 241.5 455.432 247.7C452.232 253.9 449.232 259.5 446.432 264.5C448.832 261.3 451.432 258.2 454.232 255.2C457.032 252.2 459.732 249.3 462.332 246.5C464.732 244.1 468.032 241.1 472.232 237.5C476.432 233.9 480.832 230.6 485.432 227.6C490.032 224.6 494.032 222.9 497.432 222.5C498.232 222.3 498.932 222.2 499.532 222.2C500.332 222.2 500.932 222.2 501.332 222.2C505.732 222.2 507.932 223.8 507.932 227C507.932 229.4 506.632 232.6 504.032 236.6C502.632 238.8 500.432 242.5 497.432 247.7C494.632 252.7 491.732 258.2 488.732 264.2C485.932 270 483.432 275.5 481.232 280.7C479.232 285.7 478.232 289.4 478.232 291.8C478.232 294.6 479.632 296 482.432 296C485.832 296 489.532 294.3 493.532 290.9C497.732 287.5 502.232 283.2 507.032 278C511.832 272.6 516.632 266.9 521.432 260.9C521.832 261.3 522.032 262 522.032 263C522.032 264.4 521.532 265.8 520.532 267.2C519.732 268.4 518.932 269.5 518.132 270.5C516.132 273.1 513.432 276.4 510.032 280.4C506.832 284.2 503.532 288 500.132 291.8C496.732 295.4 493.632 298.3 490.832 300.5C488.832 301.9 486.232 303.4 483.032 305C479.832 306.6 476.632 307.4 473.432 307.4C469.832 307.4 467.332 306.5 465.932 304.7C464.532 302.7 463.832 300.3 463.832 297.5C463.832 294.3 464.432 290.9 465.632 287.3C466.832 283.7 468.132 280.3 469.532 277.1C471.132 273.7 472.332 271.2 473.132 269.6C476.732 262.6 480.032 256 483.032 249.8C486.032 243.6 488.132 239.2 489.332 236.6C489.932 235.4 490.232 234.4 490.232 233.6C490.232 232.2 489.132 232.1 486.932 233.3C484.732 234.5 482.032 236.3 478.832 238.7C475.832 241.1 473.032 243.5 470.432 245.9C467.832 248.1 466.132 249.6 465.332 250.4C457.932 258.2 451.432 266.9 445.832 276.5C440.432 285.9 435.832 295.6 432.032 305.6C429.432 305.8 426.832 306.5 424.232 307.7C421.632 308.9 419.832 309.5 418.832 309.5ZM520.855 305.6C517.655 305.6 514.755 305 512.155 303.8C509.755 302.4 508.555 299.5 508.555 295.1C508.555 288.1 510.355 281.1 513.955 274.1C517.555 266.9 521.255 260.6 525.055 255.2C528.455 250.6 532.255 246.3 536.455 242.3C540.855 238.1 545.555 234.5 550.555 231.5C553.755 229.5 558.055 227.4 563.455 225.2C569.055 222.8 573.755 221.6 577.555 221.6C580.755 221.6 583.555 222.5 585.955 224.3C588.355 225.9 589.555 228.9 589.555 233.3C589.555 240.1 587.755 247.1 584.155 254.3C580.755 261.3 577.155 267.5 573.355 272.9C571.555 275.3 569.755 277.6 567.955 279.8C566.155 281.8 564.155 283.9 561.955 286.1C569.355 286.1 576.155 284 582.355 279.8C588.555 275.4 593.955 270.1 598.555 263.9L599.155 263.3C599.755 263.3 600.055 263.9 600.055 265.1C600.055 266.5 599.655 267.8 598.855 269C594.855 274.6 589.855 279.6 583.855 284C577.855 288.2 571.055 290.3 563.455 290.3C562.655 290.3 561.855 290.3 561.055 290.3C560.255 290.3 559.455 290.2 558.655 290C547.455 300.4 534.855 305.6 520.855 305.6ZM528.655 300.5C531.455 300.5 534.455 299.5 537.655 297.5C541.055 295.5 543.655 293.6 545.455 291.8C548.855 288.4 551.955 284.8 554.755 281C557.555 277 560.155 273 562.555 269C565.355 264.2 568.155 258.5 570.955 251.9C573.755 245.3 575.155 239.1 575.155 233.3C575.155 228.7 573.555 226.4 570.355 226.4C567.755 226.4 564.555 227.5 560.755 229.7C557.155 231.9 554.455 233.9 552.655 235.7C545.855 242.7 540.155 250.3 535.555 258.5C532.955 263.1 530.155 268.5 527.155 274.7C524.155 280.9 522.655 286.6 522.655 291.8C522.655 292.6 522.655 293.4 522.655 294.2C522.855 294.8 523.055 295.5 523.255 296.3C524.055 299.1 525.855 300.5 528.655 300.5ZM607.45 305.9C605.45 305.9 603.75 305.5 602.35 304.7C600.95 303.9 600.25 302.4 600.25 300.2C600.25 297.4 600.95 294.1 602.35 290.3C603.95 286.5 605.65 282.7 607.45 278.9C609.25 275.1 610.75 272 611.95 269.6C612.95 267.8 614.25 265 615.85 261.2C617.65 257.2 619.45 253.1 621.25 248.9C623.25 244.5 624.85 240.8 626.05 237.8C627.45 234.8 628.15 233.3 628.15 233.3C626.35 235.3 623.95 238.1 620.95 241.7C618.15 245.3 615.05 249.1 611.65 253.1C608.45 256.9 605.45 260.5 602.65 263.9C600.05 267.3 598.15 269.8 596.95 271.4C596.35 272.2 595.85 272.6 595.45 272.6C595.05 272.6 594.85 272.1 594.85 271.1C594.85 269.5 595.35 268 596.35 266.6C598.75 263.6 601.65 260 605.05 255.8C608.45 251.4 611.85 247 615.25 242.6C618.85 238.2 621.95 234.3 624.55 230.9C622.95 230.9 620.85 231 618.25 231.2C615.85 231.4 613.65 231.7 611.65 232.1C609.65 232.3 608.55 232.4 608.35 232.4C607.35 232.4 607.45 231.6 608.65 230C609.85 228.4 611.45 226.8 613.45 225.2C615.45 223.6 616.95 222.8 617.95 222.8C618.15 222.8 619.75 222.9 622.75 223.1C625.75 223.1 627.95 223.1 629.35 223.1C633.35 217.7 637.25 211.5 641.05 204.5C645.05 197.5 648.95 189.8 652.75 181.4C654.35 181.2 657.05 180.1 660.85 178.1C664.85 175.9 667.95 173.7 670.15 171.5C671.15 170.5 671.95 170 672.55 170C673.75 170 673.75 170.8 672.55 172.4C671.15 174 668.75 177.4 665.35 182.6C661.95 187.6 658.15 193.7 653.95 200.9C649.75 207.9 645.75 215.3 641.95 223.1H666.25C668.45 223.1 669.55 223.4 669.55 224C669.55 224.8 668.05 225.6 665.05 226.4C661.65 227.4 658.05 228 654.25 228.2C650.65 228.4 647.25 228.8 644.05 229.4C641.05 230 638.85 231.3 637.45 233.3C636.25 234.7 634.55 237.7 632.35 242.3C630.15 246.9 627.75 252.2 625.15 258.2C622.75 264 620.65 269.9 618.85 275.9C617.05 281.7 615.95 286.6 615.55 290.6V291.8C615.55 293.4 616.05 294.7 617.05 295.7C618.05 296.7 619.05 297.2 620.05 297.2C622.65 297.2 625.95 295.6 629.95 292.4C634.15 289.2 638.45 285.4 642.85 281C647.25 276.4 651.05 272.2 654.25 268.4C655.65 266.8 656.85 265.3 657.85 263.9C659.05 262.5 659.75 261.6 659.95 261.2C660.35 262 660.55 262.6 660.55 263C660.55 264.2 660.15 265.5 659.35 266.9C658.75 268.3 658.05 269.5 657.25 270.5C653.45 275.5 648.85 280.8 643.45 286.4C638.05 291.8 632.25 296.4 626.05 300.2C620.05 304 613.85 305.9 607.45 305.9ZM672.023 307.4C663.823 307.4 658.123 305.8 654.923 302.6C651.723 299.4 650.123 295.5 650.123 290.9C650.123 285.1 651.623 278.9 654.623 272.3C657.823 265.7 660.823 260.1 663.623 255.5C666.823 250.7 671.123 245.7 676.523 240.5C681.923 235.3 687.823 230.9 694.223 227.3C700.623 223.7 706.823 221.9 712.823 221.9C718.023 221.9 721.623 223.2 723.623 225.8C725.623 228.2 726.623 231.1 726.623 234.5C726.623 240.7 724.723 245.8 720.923 249.8C717.323 253.8 712.823 257.1 707.423 259.7C702.023 262.1 696.823 264.1 691.823 265.7C688.823 266.5 685.323 267.3 681.323 268.1C677.323 268.9 673.523 269.3 669.923 269.3C668.523 272.9 667.423 276.4 666.623 279.8C665.823 283.2 665.423 286.3 665.423 289.1C665.423 292.5 666.223 295.3 667.823 297.5C669.623 299.7 672.523 300.8 676.523 300.8C678.123 300.8 680.023 300.6 682.223 300.2C684.423 299.8 686.823 299.2 689.423 298.4C695.423 296.4 701.323 293.2 707.123 288.8C712.923 284.4 718.223 279.7 723.023 274.7C728.023 269.5 731.823 265.2 734.423 261.8C735.023 262.4 735.323 263.1 735.323 263.9C735.323 264.9 734.623 266.5 733.223 268.7C729.223 274.3 724.023 280.1 717.623 286.1C711.223 292.1 704.123 297.2 696.323 301.4C688.523 305.4 680.423 307.4 672.023 307.4ZM672.323 263.3C674.923 263.5 677.823 263.5 681.023 263.3C684.423 262.9 687.723 262.2 690.923 261.2C699.123 258.8 705.023 255 708.623 249.8C712.423 244.4 714.323 239.6 714.323 235.4C714.323 233 713.823 231 712.823 229.4C711.823 227.8 710.223 227 708.023 227C702.223 227 697.023 229.2 692.423 233.6C687.823 237.8 683.823 242.7 680.423 248.3C677.023 253.9 674.323 258.9 672.323 263.3Z" fill="white"/>
</svg>
